<svg xmlns="http://www.w3.org/2000/svg" viewBox="0 0 64 64" role="img" aria-label="DigiTarjetas">
  <defs>
    <linearGradient id="dt-favicon-bg" x1="8" y1="8" x2="56" y2="56" gradientUnits="userSpaceOnUse">
      <stop stop-color="#8b7cf6"/>
      <stop offset=".52" stop-color="#d66adf"/>
      <stop offset="1" stop-color="#ffb15e"/>
    </linearGradient>
  </defs>
  <rect width="64" height="64" rx="18" fill="url(#dt-favicon-bg)"/>
  <path fill="#fff" d="M22 18h12.4c5.7 0 10.1 1.6 13.2 4.7 3.1 3 4.7 7.1 4.7 12.2 0 5.2-1.6 9.4-4.8 12.5-3.2 3.1-7.7 4.6-13.6 4.6H22V18Zm12 25.6c3 0 5.4-.7 7-2.2 1.6-1.5 2.4-3.6 2.4-6.5 0-2.8-.8-4.9-2.4-6.4-1.6-1.4-3.9-2.1-6.9-2.1h-3.5v17.2H34Z"/>
</svg>
